<?xml version="1.0" standalone="no"?>
<!DOCTYPE svg PUBLIC "-//W3C//DTD SVG 20010904//EN"
 "http://www.w3.org/TR/2001/REC-SVG-20010904/DTD/svg10.dtd">
<svg version="1.0" xmlns="http://www.w3.org/2000/svg"
 width="700.000000pt" height="700.000000pt" viewBox="0 0 700.000000 700.000000"
 preserveAspectRatio="xMidYMid meet">
<metadata>
Created by potrace 1.11, written by Peter Selinger 2001-2013
</metadata>
<g transform="translate(0.000000,700.000000) scale(0.100000,-0.100000)"
fill="#000000" stroke="none">
<path d="M121 4968 c0 -13 138 -574 307 -1248 l307 -1225 211 -3 c164 -2 213
0 216 10 3 7 121 489 263 1070 143 582 262 1055 265 1050 4 -4 121 -477 260
-1052 139 -575 257 -1053 262 -1062 8 -16 29 -18 214 -18 202 0 205 0 214 23
9 19 620 2458 620 2472 0 3 -78 4 -172 3 l-172 -3 -258 -1035 c-141 -569 -257
-1039 -258 -1045 -1 -11 -242 950 -415 1653 l-107 432 -192 0 -192 0 -254
-1027 c-139 -566 -256 -1036 -260 -1046 -3 -10 -121 445 -265 1028 l-260 1045
-167 0 c-168 0 -168 0 -167 -22z"/>
<path d="M3192 3752 c-260 -681 -472 -1244 -472 -1250 0 -9 43 -12 177 -10
l176 3 112 315 112 315 560 3 560 2 108 -302 c59 -167 111 -311 116 -320 9
-16 28 -18 179 -18 135 0 170 3 170 13 0 11 -841 2232 -921 2435 l-21 52 -192
0 -192 0 -472 -1238z m892 277 l223 -604 -445 -3 c-245 -1 -447 0 -450 2 -2 3
96 278 218 611 123 333 225 604 227 602 2 -3 104 -276 227 -608z"/>
<path d="M5352 3743 l3 -1248 168 -3 167 -2 0 595 0 595 610 0 610 0 0 -590 0
-590 45 0 45 0 0 1246 0 1245 -42 -3 -43 -3 -3 -507 -2 -508 -610 0 -610 0 0
510 0 510 -170 0 -170 0 2 -1247z"/>
</g>
</svg>
